#!OML:ASF G:\JayActor3\Patient Classification 1\Patient 1\Session 6\male.ASF
:FULLY-SPECIFIED
:DEGREES
1147
root 9.2182 12.793 -4.41397 20.9021 -34.4612 11.1762
lowerback 46.7213 3.27341 14.3156
upperback 13.9946 9.64484 5.75684
thorax -4.09261 4.38719 -4.56871
lowerneck -9.78894 -1.70453 4.85407
upperneck 16.2346 0.582325 -23.1234
head 6.60951 -1.19721 -8.49829
rclavicle 8.90555e-014 -7.95139e-015
rhumerus 27.9386 15.0966 -17.3393
rradius 37.1843
rwrist 19.2142
rhand -35.2033 1.28765
rfingers 7.12502
rthumb -8.34094 -28.5277
lclavicle 8.90555e-014 -7.95139e-015
lhumerus -56.0092 -18.0766 98.5744
lradius 52.0602
lwrist 32.0017
lhand -6.0412 2.46752
lfingers 7.12502
lthumb 19.7927 31.4798
rfemur -97.0579 -31.8713 27.7252
rtibia 97.4594
rfoot -29.8059 -9.92502
rtoes -4.49301
lfemur -89.5182 5.53105 -35.8122
ltibia 82.4997
lfoot -18.5407 -1.36028
ltoes -3.8261
1148
root 9.21684 12.772 -4.4121 20.9355 -34.4682 11.18
lowerback 47.7873 3.04506 14.513
upperback 13.0878 9.72643 5.30064
thorax -4.13462 4.38275 -4.53617
lowerneck -9.76902 -1.71593 4.81695
upperneck 16.1741 0.561568 -23.1289
head 6.58403 -1.20564 -8.49061
rclavicle 1.33583e-013 -2.78299e-014
rhumerus 28.0693 14.92 -17.3008
rradius 37.1261
rwrist 19.2433
rhand -35.4457 1.21119
rfingers 7.12502
rthumb -8.57486 -28.5947
lclavicle 1.33583e-013 -2.78299e-014
lhumerus -56.0267 -18.0404 98.5642
lradius 52.0513
lwrist 31.9211
lhand -6.04677 2.45048
lfingers 7.12502
lthumb 19.7874 31.4633
rfemur -97.2556 -31.8554 27.7368
rtibia 97.6896
rfoot -29.846 -9.94734
rtoes -4.61172
lfemur -89.731 5.50399 -35.8129
ltibia 82.7595
lfoot -18.611 -1.30643
ltoes -3.95314
1149
root 9.21566 12.7513 -4.4101 20.9651 -34.4764 11.1775
lowerback 47.9374 3.02468 14.5119
upperback 13.0871 9.72244 5.30929
thorax -4.1632 4.37483 -4.52424
lowerneck -9.74768 -1.72602 4.78891
upperneck 16.1126 0.542495 -23.1456
head 6.55822 -1.21334 -8.48849
rclavicle 1.24042e-013 1.94809e-014
rhumerus 28.205 14.7711 -17.2481
rradius 37.0697
rwrist 19.2676
rhand -35.6746 1.1368
rfingers 7.12502
rthumb -8.79584 -28.6599
lclavicle 1.24042e-013 1.94809e-014
lhumerus -56.0457 -18.0119 98.5611
lradius 52.0404
lwrist 31.8519
lhand -6.06062 2.44243
lfingers 7.12502
lthumb 19.7741 31.4566
rfemur -97.4363 -31.8313 27.743
rtibia 97.9141
rfoot -29.886 -9.98655
rtoes -4.74505
lfemur -89.9348 5.48822 -35.8145
ltibia 83.0161
lfoot -18.6822 -1.25862
ltoes -4.07356
1150
root 9.21496 12.7312 -4.40766 20.9922 -34.4813 11.1628
lowerback 48.0869 2.99507 14.5253
upperback 13.0882 9.71324 5.31389
thorax -4.18644 4.36551 -4.52032
lowerneck -9.73006 -1.73381 4.77041
upperneck 16.051 0.525959 -23.1685
head 6.53342 -1.21989 -8.49039
rclavicle 8.90555e-014 3.18055e-014
rhumerus 28.3449 14.6379 -17.1946
rradius 37.0109
rwrist 19.3025
rhand -35.9053 1.03664
rfingers 7.12502
rthumb -9.01846 -28.7506
lclavicle 8.90555e-014 3.18055e-014
lhumerus -56.0639 -17.9914 98.5599
lradius 52.0296
lwrist 31.8022
lhand -6.08713 2.43577
lfingers 7.12502
lthumb 19.7486 31.4526
rfemur -97.5959 -31.8054 27.7486
rtibia 98.1311
rfoot -29.9213 -10.0499
rtoes -4.90836
lfemur -90.1245 5.47351 -35.8041
ltibia 83.2691
lfoot -18.7566 -1.20995
ltoes -4.17852
1151
root 9.21447 12.7114 -4.40504 21.0175 -34.4895 11.1467
lowerback 48.2342 2.9665 14.5375
upperback 13.0895 9.70422 5.317
thorax -4.20884 4.35643 -4.51743
lowerneck -9.71526 -1.74141 4.75477
upperneck 15.9918 0.509814 -23.1926
head 6.50998 -1.22644 -8.49346
rclavicle -1.11319e-013 -7.95139e-015
rhumerus 28.4812 14.514 -17.1405
rradius 36.9494
rwrist 19.3494
rhand -36.1551 0.93491
rfingers 7.12502
rthumb -9.25945 -28.8418
lclavicle -1.11319e-013 -7.95139e-015
lhumerus -56.0817 -17.9802 98.5656
lradius 52.0162
lwrist 31.7765
lhand -6.10856 2.42083
lfingers 7.12502
lthumb 19.728 31.4397
rfemur -97.7482 -31.7735 27.7488
rtibia 98.3432
rfoot -29.9563 -10.1281
rtoes -5.0687
lfemur -90.3086 5.4625 -35.7947
ltibia 83.5183
lfoot -18.8321 -1.15853
ltoes -4.28375
1152
root 9.21402 12.6923 -4.40205 21.0353 -34.4974 11.1379
lowerback 48.3772 2.93561 14.5485
upperback 13.0909 9.69113 5.31536
thorax -4.22997 4.34605 -4.51753
lowerneck -9.70475 -1.7493 4.74157
upperneck 15.9368 0.492893 -23.2116
head 6.48848 -1.23334 -8.49556
rclavicle 2.8625e-014 7.39479e-014
rhumerus 28.608 14.393 -17.0966
rradius 36.8843
rwrist 19.404
rhand -36.4235 0.837825
rfingers 7.12502
rthumb -9.5184 -28.9272
lclavicle 2.8625e-014 7.39479e-014
lhumerus -56.0977 -17.9683 98.5686
lradius 51.9997
lwrist 31.7612
lhand -6.11978 2.40068
lfingers 7.12502
lthumb 19.7172 31.4207
rfemur -97.8904 -31.7463 27.7374
rtibia 98.5497
rfoot -29.9957 -10.2046
rtoes -5.19585
lfemur -90.4802 5.45042 -35.7917
ltibia 83.7616
lfoot -18.9105 -1.11707
ltoes -4.3399
1153
root 9.214 12.6732 -4.39914 21.0596 -34.5055 11.1195
lowerback 48.5197 2.90506 14.567
upperback 13.0894 9.68212 5.31314
thorax -4.25206 4.33753 -4.52282
lowerneck -9.69589 -1.76019 4.72818
upperneck 15.8851 0.471449 -23.225
head 6.46755 -1.2423 -8.4961
rclavicle -1.27222e-014 -1.47101e-014
rhumerus 28.7185 14.2743 -17.0553
rradius 36.8195
rwrist 19.4558
rhand -36.7057 0.74894
rfingers 7.12502
rthumb -9.79071 -29.0035
lclavicle -1.27222e-014 -1.47101e-014
lhumerus -56.1131 -17.961 98.575
lradius 51.9819
lwrist 31.7532
lhand -6.12987 2.39415
lfingers 7.12502
lthumb 19.7075 31.4152
rfemur -98.0316 -31.7113 27.7326
rtibia 98.7515
rfoot -30.0413 -10.2749
rtoes -5.26353
lfemur -90.6556 5.43967 -35.7801
ltibia 84.0029
lfoot -18.9847 -1.0818
ltoes -4.36479
1154
root 9.21431 12.6544 -4.39612 21.0892 -34.5089 11.0926
lowerback 48.6591 2.87147 14.5965
upperback 13.0855 9.67461 5.31101
thorax -4.27395 4.32988 -4.53306
lowerneck -9.68808 -1.77356 4.71404
upperneck 15.8383 0.446609 -23.2325
head 6.44778 -1.25286 -8.49485
rclavicle -4.77083e-014 2.90226e-014
rhumerus 28.8149 14.1703 -17.0092
rradius 36.7573
rwrist 19.4831
rhand -37.004 0.674126
rfingers 7.12502
rthumb -10.0785 -29.0645
lclavicle -4.77083e-014 2.90226e-014
lhumerus -56.1241 -17.957 98.5845
lradius 51.9589
lwrist 31.7423
lhand -6.12332 2.39384
lfingers 7.12502
lthumb 19.7138 31.4142
rfemur -98.1698 -31.6783 27.736
rtibia 98.9491
rfoot -30.0933 -10.3295
rtoes -5.28012
lfemur -90.8322 5.43194 -35.7656
ltibia 84.2426
lfoot -19.0529 -1.0451
ltoes -4.44267
1155
root 9.21487 12.636 -4.39261 21.1167 -34.5079 11.0691
lowerback 48.7905 2.83443 14.6302
upperback 13.0817 9.66394 5.30736
thorax -4.29338 4.32137 -4.54541
lowerneck -9.68218 -1.78827 4.70273
upperneck 15.7942 0.419499 -23.2374
head 6.42883 -1.26443 -8.49356
rclavicle -9.54166e-015 -8.82604e-014
rhumerus 28.9009 14.0885 -16.9523
rradius 36.7003
rwrist 19.485
rhand -37.3116 0.570719
rfingers 7.12502
rthumb -10.3752 -29.1533
lclavicle -9.54166e-015 -8.82604e-014
lhumerus -56.1299 -17.9598 98.5974
lradius 51.9328
lwrist 31.7255
lhand -6.10077 2.40229
lfingers 7.12502
lthumb 19.7355 31.4204
rfemur -98.305 -31.6571 27.7375
rtibia 99.1431
rfoot -30.1514 -10.3591
rtoes -5.24589
lfemur -91.0036 5.42263 -35.7583
ltibia 84.4793
lfoot -19.1176 -1.01172
ltoes -4.55634
1156
root 9.21569 12.6177 -4.38922 21.1558 -34.5043 11.0325
lowerback 48.9171 2.79682 14.6723
upperback 13.076 9.65621 5.30534
thorax -4.31242 4.31421 -4.5605
lowerneck -9.67724 -1.80235 4.69561
upperneck 15.754 0.393671 -23.245
head 6.41141 -1.27556 -8.49421
rclavicle -1.90833e-014 -6.59965e-014
rhumerus 28.9826 14.0359 -16.8741
rradius 36.6476
rwrist 19.4761
rhand -37.6268 0.465978
rfingers 7.12502
rthumb -10.6793 -29.2426
lclavicle -1.90833e-014 -6.59965e-014
lhumerus -56.1275 -17.9598 98.6101
lradius 51.9041
lwrist 31.6864
lhand -6.06257 2.41234
lfingers 7.12502
lthumb 19.7722 31.4267
rfemur -98.4415 -31.6283 27.7502
rtibia 99.3336
rfoot -30.2083 -10.3843
rtoes -5.20971
lfemur -91.183 5.41516 -35.7421
ltibia 84.7136
lfoot -19.1734 -0.968966
ltoes -4.72822
1157
root 9.21638 12.5997 -4.38574 21.1948 -34.5026 11.0046
lowerback 49.0357 2.7653 14.7028
upperback 13.0696 9.64985 5.30587
thorax -4.33332 4.30729 -4.56888
lowerneck -9.67488 -1.81335 4.6906
upperneck 15.7215 0.373892 -23.2565
head 6.39785 -1.28442 -8.49679
rclavicle -2.54444e-014 -2.38542e-014
rhumerus 29.0599 14.0165 -16.7658
rradius 36.6038
rwrist 19.4756
rhand -37.9377 0.365891
rfingers 7.12502
rthumb -10.9792 -29.327
lclavicle -2.54444e-014 -2.38542e-014
lhumerus -56.1205 -17.9616 98.629
lradius 51.8732
lwrist 31.6285
lhand -6.00042 2.41718
lfingers 7.12502
lthumb 19.832 31.4254
rfemur -98.5798 -31.5993 27.7552
rtibia 99.5213
rfoot -30.2623 -10.4076
rtoes -5.19463
lfemur -91.3611 5.4046 -35.7331
ltibia 84.9416
lfoot -19.2275 -0.924841
ltoes -4.89466
